<svg width="42" height="37" viewBox="0 0 42 37" fill="none" xmlns="http://www.w3.org/2000/svg">
<g filter="url(#filter0_d_1_2)">
<path d="M36.8511 9.76541L12.7306 0.829184C12.4221 0.715178 12.0793 0.872936 11.9655 1.1817C11.9653 1.18195 11.9653 1.1822 11.965 1.18245L9.29489 8.45059C9.18138 8.75935 9.33964 9.10187 9.64841 9.21538H9.64891L12.4448 10.2419L11.8288 11.9203C11.7155 12.229 11.8738 12.5711 12.1825 12.6846L17.7753 14.7379L17.3643 15.8567C16.9908 16.8588 17.3393 17.9868 18.2134 18.6031V21.6433H10.1974C9.80942 20.7562 9.01537 20.1122 8.06707 19.9157V18.6646C8.06707 18.3356 7.80056 18.0688 7.47129 18.0688H5.06941C4.7404 18.0688 4.47363 18.3356 4.47363 18.6646V28.1964C4.47363 28.5257 4.7404 28.7922 5.06941 28.7922H7.47129C7.80056 28.7922 8.06707 28.5257 8.06707 28.1964V26.9456C9.01537 26.7488 9.80942 26.105 10.1974 25.2177H18.2134V25.8135C18.2134 26.8006 19.0134 27.6009 20.0005 27.6009C20.9875 27.6009 21.7878 26.8006 21.7878 25.8135V19.2139C22.3293 18.9454 22.7476 18.4796 22.9561 17.9121L23.3671 16.7933L28.4004 18.6401C28.4662 18.6644 28.5354 18.6766 28.6054 18.6766C28.8552 18.6766 29.0787 18.5209 29.1649 18.2864L29.3882 17.6781C31.3268 18.0428 33.1939 16.767 33.5584 14.8287C33.6932 14.1124 33.6057 13.3721 33.3077 12.7071L36.9191 10.8527C37.2119 10.7027 37.3276 10.3437 37.1776 10.0509C37.1096 9.91792 36.9941 9.81541 36.8541 9.76366L36.8511 9.76541ZM19.4047 19.1459L19.898 19.3247C20.1225 19.4052 20.358 19.4514 20.5962 19.4617V21.6433H19.4047V19.1459ZM6.87576 27.6009H5.6652V19.2604H6.87576V27.6009ZM9.25864 24.0264C9.25764 24.7835 8.78061 25.4582 8.06707 25.7118V21.1495C8.78061 21.4028 9.25764 22.0776 9.25864 22.8349V24.0264ZM10.4687 22.8349H20.5962V24.0264H10.4687V22.8349ZM20.0005 26.4093C19.6714 26.4093 19.4047 26.1425 19.4047 25.8135V25.2177H20.5962V25.8135C20.5962 26.1425 20.3295 26.4093 20.0005 26.4093ZM22.2488 16.383L21.8378 17.5018C21.6108 18.1189 20.9265 18.4354 20.309 18.2089L19.1884 17.7983C18.5709 17.5716 18.2539 16.887 18.4806 16.2693C18.4806 16.2693 18.4806 16.2693 18.4806 16.269L18.8919 15.1509L21.9116 16.2595L22.2488 16.383ZM28.2521 17.3183L13.1523 11.7735L13.5636 10.6547L22.5111 13.9404C22.7229 14.0174 22.9604 13.9691 23.1251 13.8151L24.797 12.2413L29.4842 13.9629L28.2521 17.3183ZM32.2801 14.9899C31.9026 16.0077 30.8873 16.6438 29.807 16.539L30.7275 14.0314L32.2311 13.2571C32.4664 13.8076 32.4839 14.4272 32.2801 14.9899ZM30.2693 12.9301C30.2377 12.9328 30.2065 12.9383 30.1757 12.9466L24.8642 10.9962C24.6525 10.9185 24.4149 10.9667 24.2504 11.1212L22.5766 12.6953L10.6187 8.30408L12.8773 2.15425L35.1675 10.4124L30.2693 12.9301Z" fill="#E3B873"/>
<path d="M16.1292 8.70325L15.6038 10.1232M18.419 9.54328L17.8935 10.9632M20.641 10.3698L20.1155 11.7897" stroke="#E3B873" stroke-linecap="round"/>
</g>
<defs>
<filter id="filter0_d_1_2" x="0.473633" y="0.792114" width="40.7696" height="36.0001" filterUnits="userSpaceOnUse" color-interpolation-filters="sRGB">
<feFlood flood-opacity="0" result="BackgroundImageFix"/>
<feColorMatrix in="SourceAlpha" type="matrix" values="0 0 0 0 0 0 0 0 0 0 0 0 0 0 0 0 0 0 127 0" result="hardAlpha"/>
<feOffset dy="4"/>
<feGaussianBlur stdDeviation="2"/>
<feComposite in2="hardAlpha" operator="out"/>
<feColorMatrix type="matrix" values="0 0 0 0 0 0 0 0 0 0 0 0 0 0 0 0 0 0 0.25 0"/>
<feBlend mode="normal" in2="BackgroundImageFix" result="effect1_dropShadow_1_2"/>
<feBlend mode="normal" in="SourceGraphic" in2="effect1_dropShadow_1_2" result="shape"/>
</filter>
</defs>
</svg>
